<?xml version="1.0" encoding="utf-8"?>
<!-- Generator: Adobe Illustrator 26.0.3, SVG Export Plug-In . SVG Version: 6.00 Build 0)  -->
<svg version="1.0" id="artwork" xmlns="http://www.w3.org/2000/svg" xmlns:xlink="http://www.w3.org/1999/xlink" x="0px" y="0px"
	 viewBox="0 0 183.7 128.3" style="enable-background:new 0 0 183.7 128.3;" xml:space="preserve">
<style type="text/css">
	.Graphic_x0020_Style_x0020_2{fill:url(#SVGID_1_);}
	.st0{fill:#FFFFFF;fill-opacity:0;}
	.st1{fill:#A7A6A6;}
	.st2{fill:#FFFFFF;}
	.st3{fill:#5BC9F4;}
	.st4{fill:url(#SVGID_00000105412026079943783540000011692375334498443655_);}
	.st5{fill:url(#SVGID_00000061472998550601962680000011990818119906404741_);}
	.st6{fill:url(#SVGID_00000063592971427635989050000004789079242636738185_);}
	.st7{fill:#FFFFFF;stroke:#FFFFFF;stroke-width:0.2;stroke-miterlimit:10;}
</style>
<linearGradient id="SVGID_1_" gradientUnits="userSpaceOnUse" x1="14.3333" y1="4.1667" x2="13.6262" y2="4.8738">
	<stop  offset="0" style="stop-color:#EF4547"/>
	<stop  offset="1" style="stop-color:#C6186D"/>
</linearGradient>
<g>
	<rect x="14.3" y="34.2" class="st0" width="155" height="60"/>
	<g>
		<path d="M154.3,84.2h-125c-2.8,0-5-2.2-5-5v-30c0-2.8,2.2-5,5-5h125c2.8,0,5,2.2,5,5v30C159.3,81.9,157.1,84.2,154.3,84.2z"/>
	</g>
	<g>
		<g>
			<path class="st1" d="M154.3,45c2.3,0,4.2,1.9,4.2,4.2v30c0,2.3-1.9,4.2-4.2,4.2h-125c-2.3,0-4.2-1.9-4.2-4.2v-30
				c0-2.3,1.9-4.2,4.2-4.2H154.3 M154.3,44.2h-125c-2.8,0-5,2.2-5,5v30c0,2.8,2.2,5,5,5h125c2.8,0,5-2.2,5-5v-30
				C159.3,46.4,157.1,44.2,154.3,44.2L154.3,44.2z"/>
		</g>
	</g>
	<path class="st2" d="M92.5,65.9c-2.4,0-4.3,1.8-4.3,4.3c0,2.4,1.9,4.3,4.3,4.3c2.4,0,4.3-1.8,4.3-4.3
		C96.7,67.7,94.8,65.9,92.5,65.9z M92.5,72.7c-1.3,0-2.4-1.1-2.4-2.6c0-1.5,1.1-2.6,2.4-2.6c1.3,0,2.4,1,2.4,2.6
		C94.9,71.7,93.8,72.7,92.5,72.7z M83.2,65.9c-2.4,0-4.3,1.8-4.3,4.3c0,2.4,1.9,4.3,4.3,4.3c2.4,0,4.3-1.8,4.3-4.3
		C87.4,67.7,85.5,65.9,83.2,65.9z M83.2,72.7c-1.3,0-2.4-1.1-2.4-2.6c0-1.5,1.1-2.6,2.4-2.6c1.3,0,2.4,1,2.4,2.6
		C85.6,71.7,84.4,72.7,83.2,72.7z M72.1,67.2V69h4.3c-0.1,1-0.5,1.8-1,2.3c-0.6,0.6-1.6,1.3-3.3,1.3c-2.7,0-4.7-2.1-4.7-4.8
		c0-2.7,2.1-4.8,4.7-4.8c1.4,0,2.5,0.6,3.3,1.3l1.3-1.3c-1.1-1-2.5-1.8-4.5-1.8c-3.6,0-6.7,3-6.7,6.6c0,3.6,3.1,6.6,6.7,6.6
		c2,0,3.4-0.6,4.6-1.9c1.2-1.2,1.6-2.9,1.6-4.2c0-0.4,0-0.8-0.1-1.1H72.1z M117.4,68.6c-0.4-1-1.4-2.7-3.6-2.7c-2.2,0-4,1.7-4,4.3
		c0,2.4,1.8,4.3,4.2,4.3c1.9,0,3.1-1.2,3.5-1.9l-1.4-1c-0.5,0.7-1.1,1.2-2.1,1.2c-1,0-1.6-0.4-2.1-1.3l5.7-2.4L117.4,68.6z
		 M111.6,70c0-1.6,1.3-2.5,2.2-2.5c0.7,0,1.4,0.4,1.6,0.9L111.6,70z M107,74.2h1.9V61.7H107V74.2z M103.9,66.9L103.9,66.9
		c-0.5-0.5-1.3-1-2.3-1c-2.1,0-4.1,1.9-4.1,4.3c0,2.4,1.9,4.2,4.1,4.2c1,0,1.8-0.5,2.2-1h0.1v0.6c0,1.6-0.9,2.5-2.3,2.5
		c-1.1,0-1.9-0.8-2.1-1.5l-1.6,0.7c0.5,1.1,1.7,2.5,3.8,2.5c2.2,0,4-1.3,4-4.4v-7.6h-1.8V66.9z M101.8,72.7c-1.3,0-2.4-1.1-2.4-2.6
		c0-1.5,1.1-2.6,2.4-2.6c1.3,0,2.3,1.1,2.3,2.6C104,71.7,103,72.7,101.8,72.7z M126.1,61.7h-4.5v12.5h1.9v-4.7h2.6
		c2.1,0,4.1-1.5,4.1-3.9C130.2,63.2,128.2,61.7,126.1,61.7z M126.2,67.7h-2.7v-4.3h2.7c1.4,0,2.2,1.2,2.2,2.1
		C128.4,66.5,127.6,67.7,126.2,67.7z M137.7,65.9c-1.4,0-2.8,0.6-3.3,1.9l1.7,0.7c0.4-0.7,1-0.9,1.7-0.9c1,0,1.9,0.6,2,1.6v0.1
		c-0.3-0.2-1.1-0.5-1.9-0.5c-1.8,0-3.6,1-3.6,2.8c0,1.7,1.5,2.8,3.1,2.8c1.3,0,1.9-0.6,2.4-1.2h0.1v1h1.8v-4.8
		C141.5,67.1,139.9,65.9,137.7,65.9z M137.5,72.7c-0.6,0-1.5-0.3-1.5-1.1c0-1,1.1-1.3,2-1.3c0.8,0,1.2,0.2,1.7,0.4
		C139.6,71.9,138.6,72.7,137.5,72.7z M148.1,66.2l-2.1,5.4h-0.1l-2.2-5.4h-2l3.3,7.6l-1.9,4.2h1.9l5.1-11.8H148.1z M131.3,74.2h1.9
		V61.7h-1.9V74.2z"/>
	<g>
		<g>
			<g>
				<path class="st3" d="M34.8,51.7c-0.3,0.3-0.5,0.8-0.5,1.4v22.1c0,0.6,0.2,1.1,0.5,1.4l0.1,0.1l12.4-12.4v-0.1V64L34.8,51.7
					L34.8,51.7z"/>
				
					<linearGradient id="SVGID_00000012469203574915418590000006431249157014019501_" gradientUnits="userSpaceOnUse" x1="55.4221" y1="64.1669" x2="31.2453" y2="64.1669">
					<stop  offset="0" style="stop-color:#FEE000"/>
					<stop  offset="0.1941" style="stop-color:#FCCF0B"/>
					<stop  offset="0.5469" style="stop-color:#FAB318"/>
					<stop  offset="0.8279" style="stop-color:#F9A21B"/>
					<stop  offset="1" style="stop-color:#F99B1C"/>
				</linearGradient>
				<path style="fill:url(#SVGID_00000012469203574915418590000006431249157014019501_);" d="M51.3,68.4l-4.1-4.1v-0.1V64l4.1-4.1
					l0.1,0.1l4.9,2.8c1.4,0.8,1.4,2.1,0,2.9L51.3,68.4L51.3,68.4z"/>
				
					<linearGradient id="SVGID_00000109746328711430388440000002876317518541037724_" gradientUnits="userSpaceOnUse" x1="49.1479" y1="66.4598" x2="26.4085" y2="89.1993">
					<stop  offset="0" style="stop-color:#EF4547"/>
					<stop  offset="1" style="stop-color:#C6186D"/>
				</linearGradient>
				<path style="fill:url(#SVGID_00000109746328711430388440000002876317518541037724_);" d="M51.4,68.4l-4.2-4.2L34.8,76.6
					c0.5,0.5,1.2,0.5,2.1,0.1L51.4,68.4"/>
				
					<linearGradient id="SVGID_00000147195674925690756020000014051863213825903747_" gradientUnits="userSpaceOnUse" x1="26.307" y1="39.0325" x2="44.8733" y2="57.5988">
					<stop  offset="0" style="stop-color:#279E6F"/>
					<stop  offset="0.3168" style="stop-color:#4DAB6D"/>
					<stop  offset="0.7398" style="stop-color:#6ABA6A"/>
					<stop  offset="1" style="stop-color:#74C169"/>
				</linearGradient>
				<path style="fill:url(#SVGID_00000147195674925690756020000014051863213825903747_);" d="M51.4,59.9l-14.6-8.3
					c-0.9-0.5-1.6-0.4-2.1,0.1l12.5,12.5L51.4,59.9z"/>
			</g>
		</g>
	</g>
</g>
<g>
	<path class="st7" d="M94.8,58.7c-0.6,0-1.1-0.2-1.5-0.5c-0.4-0.4-0.5-0.9-0.5-1.5c0-0.2,0-0.4,0-0.6c0-0.2,0.1-0.5,0.2-0.8l0.4,0.1
		c-0.1,0.3-0.1,0.6-0.1,0.8c0,0.5,0.1,1,0.4,1.3c0.3,0.3,0.6,0.4,1.1,0.4c0.5,0,1.1-0.1,1.6-0.4s0.9-0.6,1.1-1
		c-0.5-1-0.7-1.7-0.7-2.1c0-0.2,0.1-0.4,0.2-0.5s0.3-0.3,0.6-0.5c0,0.3,0.1,0.7,0.3,1.4l0,0c0.2,0.1,0.5,0.2,0.8,0.2
		c0.1,0,0.1,0,0.1,0.1v0.7c0,0.1,0,0.1-0.1,0.1c-0.2,0-0.5,0-0.7-0.1l0,0.3c0,0.5-0.1,0.9-0.4,1.3s-0.7,0.7-1.2,1
		C95.8,58.5,95.3,58.7,94.8,58.7z M95.6,52.7c-0.2,0.2-0.4,0.5-0.7,0.8c-0.3-0.3-0.6-0.5-0.8-0.7c0.4-0.4,0.6-0.6,0.8-0.8
		C95.1,52.2,95.4,52.4,95.6,52.7z"/>
	<path class="st7" d="M98.6,55.8C98.5,55.8,98.5,55.8,98.6,55.8L98.5,55c0-0.1,0-0.1,0.1-0.1c0.3,0,0.5-0.1,0.7-0.2
		c0.2-0.1,0.4-0.3,0.5-0.6l0.2-0.4c0.3-0.6,0.6-1,0.8-1.3s0.6-0.4,0.9-0.4c0.2,0,0.4,0.1,0.6,0.4s0.4,0.6,0.5,1s0.2,0.8,0.2,1.2
		c0,0.2,0,0.4-0.1,0.6c-0.1,0.2-0.2,0.4-0.4,0.5c-0.4,0-0.9-0.1-1.4-0.2s-0.9-0.3-1.2-0.5c-0.2,0.2-0.4,0.4-0.6,0.5
		C99.1,55.7,98.9,55.8,98.6,55.8z M102.3,55c0-0.5-0.1-0.9-0.3-1.3s-0.3-0.6-0.5-0.6c-0.1,0-0.3,0-0.4,0.1s-0.2,0.2-0.4,0.4
		s-0.3,0.5-0.5,0.9C100.8,54.7,101.5,54.9,102.3,55z"/>
	<path class="st7" d="M109.1,55.4c-0.4,0-0.7-0.1-0.8-0.1c-0.2,0-0.3-0.1-0.5-0.1c-0.2-0.1-0.3-0.1-0.5-0.2s-0.3-0.2-0.4-0.3
		s-0.1-0.2-0.1-0.2c0-0.1,0-0.3,0.1-0.5s0.2-0.4,0.2-0.5c0.1-0.2,0.4-0.4,0.7-0.7c0.4-0.3,0.8-0.5,1.2-0.7l0-0.3
		c0.3-0.2,0.5-0.4,0.8-0.6l0.1,3.6c0.3,0.2,0.7,0.3,1.1,0.3c0.1,0,0.1,0,0.1,0.1v0.7c0,0.1,0,0.1-0.1,0.1c-0.4,0-0.8-0.1-1.1-0.2
		c-0.3-0.2-0.4-0.4-0.5-0.7l0-0.2L109.1,55.4z M107.3,53.8c0.3,0.3,0.6,0.4,1,0.5c0.4,0.1,0.8,0.1,1.2,0.1l-0.3-1.8l0,0
		C108.3,53,107.7,53.4,107.3,53.8z"/>
	<path class="st7" d="M114.1,53.3c0.1,0,0.2,0,0.3,0.1c-0.1,0.3-0.2,0.6-0.3,0.8s-0.2,0.3-0.2,0.4c0.2,0.2,0.5,0.3,0.7,0.3
		s0.4,0.1,0.7,0.1c0.1,0,0.1,0,0.1,0.1v0.7c0,0.1,0,0.1-0.1,0.1c-0.7,0-1.3-0.2-1.7-0.6l-0.2,0.2c-0.1,0.1-0.3,0.2-0.8,0.3
		c-0.5,0.1-0.9,0.1-1.3,0.1c-0.1,0-0.1,0-0.1-0.1V55c0-0.1,0-0.1,0.1-0.1c0.5,0,0.8,0,1.2-0.1c0.3,0,0.5-0.1,0.7-0.2
		s0.3-0.4,0.6-0.9l0.2-0.4C113.8,53.3,113.9,53.3,114.1,53.3z M113.1,57.2c-0.1,0.2-0.3,0.5-0.7,0.8c-0.3-0.3-0.6-0.5-0.7-0.7
		c0.2-0.2,0.4-0.4,0.7-0.7C112.5,56.6,112.7,56.8,113.1,57.2z M114.8,57c-0.1,0.2-0.4,0.5-0.7,0.7c-0.3-0.3-0.6-0.5-0.7-0.7
		c0.2-0.2,0.4-0.4,0.7-0.7C114.2,56.4,114.4,56.7,114.8,57z"/>
	<path class="st7" d="M115.4,55.8C115.3,55.8,115.3,55.8,115.4,55.8l-0.1-0.7c0-0.1,0-0.1,0.1-0.1c0.4,0,0.8-0.1,1.2-0.3
		c-0.1-0.8-0.2-2.2-0.3-4.2l-0.1-1.5c0.2-0.2,0.5-0.4,0.7-0.6c0,1,0.1,2.6,0.1,4.7l0,1.5c0.3,0.2,0.7,0.3,1.1,0.3
		c0.1,0,0.1,0,0.1,0.1v0.7c0,0.1,0,0.1-0.1,0.1c-0.5,0-1-0.1-1.3-0.4c-0.3,0.2-0.5,0.3-0.7,0.3C116,55.8,115.7,55.8,115.4,55.8z"/>
	<path class="st7" d="M118.2,55.8C118.2,55.8,118.1,55.8,118.2,55.8l-0.1-0.7c0-0.1,0-0.1,0.1-0.1c0.5,0,0.9,0,1.4,0
		c-0.2-0.1-0.3-0.3-0.5-0.5S119,54,119,53.8c0-0.3,0.1-0.6,0.3-1s0.4-0.6,0.7-0.8c0.3-0.2,0.5-0.3,0.8-0.3c0.3,0,0.5,0.1,0.7,0.2
		c0.2,0.1,0.5,0.3,0.8,0.6l-0.2,0.3c-0.3-0.1-0.5-0.2-0.6-0.2c-0.1,0-0.3,0-0.4,0c-0.5,0-0.9,0.1-1.4,0.4c0,0.3,0.1,0.6,0.2,0.9
		c0.2,0.3,0.4,0.5,0.7,0.6c0.3,0.2,0.6,0.2,1,0.3c0.3-0.1,0.5-0.1,0.8-0.2c0.3-0.1,0.6-0.2,1.1-0.4c0.1,0.1,0.2,0.2,0.2,0.4l0,0.1
		c0,0.2-0.2,0.4-0.5,0.5c-0.9,0.2-1.5,0.4-2,0.4c-0.4,0.1-0.9,0.1-1.4,0.2S118.7,55.8,118.2,55.8z"/>
	<path class="st7" d="M131.7,56.4l-0.3-1.8c-0.3-1.9-0.5-3.2-0.6-3.9c-0.1-0.7-0.1-1.2-0.1-1.4c0-0.2,0.1-0.4,0.2-0.6
		c0.1-0.1,0.3-0.2,0.5-0.3c0,0,0,0.1,0,0.1c0,0,0.1,0.4,0.4,1.2l-0.3,0.2l0,0.2l0.4,3.3c0.1,0.5,0.1,0.9,0.1,1.4l0,0
		c0.2,0.1,0.5,0.2,0.8,0.2c0.1,0,0.1,0,0.1,0.1v0.7c0,0.1,0,0.1-0.1,0.1c-0.3,0-0.5-0.1-0.8-0.2l0,0.4c0,0.5-0.1,0.9-0.4,1.3
		s-0.7,0.7-1.2,1c-0.5,0.3-1,0.4-1.5,0.4c-0.6,0-1.1-0.2-1.5-0.5c-0.4-0.4-0.5-0.9-0.5-1.5c0-0.2,0-0.4,0-0.6c0-0.2,0.1-0.5,0.2-0.8
		l0.4,0.1c-0.1,0.3-0.1,0.6-0.1,0.8c0,0.5,0.1,1,0.4,1.3c0.3,0.3,0.6,0.4,1.1,0.4c0.3,0,0.7-0.1,1.1-0.2c0.4-0.1,0.7-0.3,1-0.5
		S131.6,56.6,131.7,56.4z"/>
	<path class="st7" d="M141.5,55.8c-0.3,0-0.6-0.1-0.9-0.2c-0.3-0.1-0.6-0.3-0.8-0.5c-0.3,0.2-0.7,0.4-1.2,0.5s-0.9,0.2-1.4,0.2
		c-0.5,0-1.1-0.1-1.6-0.2s-1-0.3-1.3-0.4l-0.2,0.2c-0.2,0.3-0.6,0.4-1.2,0.4c-0.1,0-0.1,0-0.1-0.1V55c0-0.1,0-0.1,0.1-0.1
		c0.3,0,0.6-0.1,0.8-0.2c0.2-0.1,0.4-0.4,0.6-0.7l0.2-0.3c0.1-0.1,0.2-0.2,0.3-0.2c0.1,0,0.2,0,0.3,0.1c-0.2,0.4-0.3,0.6-0.3,0.8
		c0.2,0.1,0.4,0.2,0.5,0.2c1.4-1.9,2.6-2.8,3.6-2.8c0.2,0,0.5,0.1,0.8,0.3s0.6,0.4,0.8,0.6s0.4,0.5,0.4,0.7c0,0.4-0.1,0.8-0.4,1.2
		c0.3,0.2,0.7,0.3,1.2,0.3c0.1,0,0.1,0,0.1,0.1L141.5,55.8C141.6,55.8,141.6,55.8,141.5,55.8z M137.3,55c1,0,1.9-0.3,2.9-0.9
		c-0.2-0.4-0.5-0.7-0.8-0.9c-0.3-0.2-0.6-0.3-0.9-0.3c-0.3,0-0.8,0.2-1.2,0.5c-0.5,0.3-1,0.8-1.6,1.5C136.3,54.9,136.9,55,137.3,55z
		"/>
	<path class="st7" d="M141.6,55.8C141.5,55.8,141.5,55.8,141.6,55.8l-0.1-0.7c0-0.1,0-0.1,0.1-0.1c1.1,0,1.9-0.1,2.5-0.3l0.6-0.2
		c0.4-0.2,0.8-0.3,1.1-0.3c-0.3-0.1-0.6-0.3-0.8-0.5c-0.3-0.2-0.5-0.4-0.7-0.5c-0.2-0.1-0.4-0.1-0.6-0.1c-0.4,0-0.7,0.1-0.9,0.3
		l-0.3,0.2c-0.1-0.1-0.2-0.3-0.2-0.4c0-0.3,0.1-0.5,0.4-0.7c0.2-0.2,0.6-0.3,1-0.3c0.2,0,0.5,0.1,0.7,0.2s0.5,0.3,0.8,0.5
		c0.4,0.3,0.7,0.5,1,0.6c0.3,0.1,0.5,0.2,0.8,0.3s0.7,0.1,1.2,0.1l-0.4,0.8c-0.2,0-0.4,0-0.6-0.1l0,0l-0.2,0c-0.3,0-0.5,0-0.7,0.1
		c-0.2,0.1-0.6,0.2-1.1,0.5c-0.5,0.3-1,0.5-1.5,0.6C143.2,55.7,142.5,55.8,141.6,55.8z"/>
	<path class="st7" d="M149.6,52.1v0.7c0,0.7,0,1.7-0.1,2.9l-0.5,0.1c0-2.6-0.1-4.7-0.3-6.4l0-0.1c0-0.2,0.1-0.4,0.2-0.6
		c0.1-0.1,0.3-0.2,0.6-0.3c0,0,0,0.1,0,0.1s0.1,0.4,0.4,1.2l-0.3,0.3l0,0.1C149.6,50.8,149.6,51.5,149.6,52.1z"/>
</g>
</svg>
